# xmcd
#
# Track frame offsets:
#	150
#	18734
#	37073
#	63977
#	86397
#	109838
#	130790
#	155469
#	174349
#	192426
#	210389
#	229657
#	249130
#	265522
#	281963
#
# Disc length: 4061 seconds
#
# Revision: 0
# Processed by: cddbd v1.5.2PL0 Copyright (c) Steve Scherf et al.
# Submitted via: EasyCDDAExtractor 16.0.6.1
#
DISCID=c70fdb0f
DTITLE=Various Artist - Τα blues του party Cd2
DYEAR=2013
DGENRE=Blues
TTITLE0=Lionel Richie - Hello
TTITLE1=Chris de Burgh - Lady in red
TTITLE2=10CC - I'm not in love
TTITLE3=Sam Brown - Stop
TTITLE4=Sinead O'Connor - Nothing compares 2 U
TTITLE5=Whitesnake - Is this love
TTITLE6=Duran Duran - Save a prayer
TTITLE7=Jim Diamond - I should have known better
TTITLE8=Jennifer Warnes and Joe Cocker - Up where we belong
TTITLE9=Lionel Richie - Say you, say me
TTITLE10=Kool and The Gang - Cherish
TTITLE11=Sergio Mendes - Never gonna let you go
TTITLE12=Billy Preston and Syreeta - With you I'm born again
TTITLE13=The Commodores - Three times a lady
TTITLE14=Rockwell - Knife
EXTD=
EXTT0=
EXTT1=
EXTT2=
EXTT3=
EXTT4=
EXTT5=
EXTT6=
EXTT7=
EXTT8=
EXTT9=
EXTT10=
EXTT11=
EXTT12=
EXTT13=
EXTT14=
PLAYORDER=
